<svg width="907" height="766" viewBox="0 0 907 766" fill="none" xmlns="http://www.w3.org/2000/svg">
<rect width="907" height="614" fill="#2882C0"/>
<rect width="907" height="614" fill="#2882C0"/>
<rect width="907" height="614" fill="#2882C0"/>
<rect width="907" height="614" fill="#2882C0"/>
<path d="M302 144H296.176L272.752 108.48V144H266.928V99.328H272.752L296.176 134.784V99.328H302V144ZM317.752 104.128V119.04H334.008V123.84H317.752V139.2H335.928V144H311.928V99.328H335.928V104.128H317.752ZM350.565 104.128V119.04H366.821V123.84H350.565V139.2H368.741V144H344.741V99.328H368.741V104.128H350.565ZM391.441 99.392C396.305 99.392 400.508 100.309 404.049 102.144C407.633 103.936 410.364 106.517 412.241 109.888C414.161 113.259 415.121 117.227 415.121 121.792C415.121 126.357 414.161 130.325 412.241 133.696C410.364 137.024 407.633 139.584 404.049 141.376C400.508 143.125 396.305 144 391.441 144H377.553V99.392H391.441ZM391.441 139.2C397.201 139.2 401.596 137.685 404.625 134.656C407.654 131.584 409.169 127.296 409.169 121.792C409.169 116.245 407.633 111.915 404.561 108.8C401.532 105.685 397.158 104.128 391.441 104.128H383.377V139.2H391.441ZM474.234 99.392V144H468.41V123.776H445.69V144H439.866V99.392H445.69V118.976H468.41V99.392H474.234ZM490.002 104.128V119.04H506.258V123.84H490.002V139.2H508.178V144H484.178V99.328H508.178V104.128H490.002ZM522.815 139.264H538.431V144H516.991V99.392H522.815V139.264ZM574.44 112.448C574.44 116.16 573.16 119.253 570.6 121.728C568.082 124.16 564.221 125.376 559.016 125.376H550.44V144H544.616V99.392H559.016C564.05 99.392 567.869 100.608 570.472 103.04C573.117 105.472 574.44 108.608 574.44 112.448ZM559.016 120.576C562.258 120.576 564.648 119.872 566.184 118.464C567.72 117.056 568.488 115.051 568.488 112.448C568.488 106.944 565.33 104.192 559.016 104.192H550.44V120.576H559.016ZM593.07 98.816C597.294 98.816 600.707 100.011 603.31 102.4C605.913 104.789 607.214 107.989 607.214 112C607.214 116.48 605.827 119.808 603.054 121.984C600.281 124.117 596.526 125.184 591.79 125.184L591.598 131.264H586.542L586.286 121.152H588.142C592.366 121.152 595.673 120.512 598.062 119.232C600.451 117.952 601.646 115.541 601.646 112C601.646 109.44 600.878 107.413 599.342 105.92C597.806 104.427 595.737 103.68 593.134 103.68C590.489 103.68 588.398 104.405 586.862 105.856C585.369 107.264 584.622 109.205 584.622 111.68H579.118C579.118 109.12 579.694 106.88 580.846 104.96C581.998 102.997 583.619 101.483 585.71 100.416C587.843 99.3493 590.297 98.816 593.07 98.816ZM589.038 144.384C587.929 144.384 586.99 144 586.222 143.232C585.454 142.464 585.07 141.525 585.07 140.416C585.07 139.307 585.454 138.368 586.222 137.6C586.99 136.832 587.929 136.448 589.038 136.448C590.105 136.448 591.001 136.832 591.726 137.6C592.494 138.368 592.878 139.307 592.878 140.416C592.878 141.525 592.494 142.464 591.726 143.232C591.001 144 590.105 144.384 589.038 144.384Z" fill="white"/>
<path d="M196.12 213.12L188.04 241H183.96L177.48 218.56L170.76 241L166.72 241.04L158.92 213.12H162.8L168.88 236.76L175.6 213.12H179.68L186.08 236.68L192.2 213.12H196.12ZM220.103 229.2C220.103 229.893 220.063 230.627 219.983 231.4H202.463C202.597 233.56 203.33 235.253 204.663 236.48C206.023 237.68 207.663 238.28 209.583 238.28C211.157 238.28 212.463 237.92 213.503 237.2C214.57 236.453 215.317 235.467 215.743 234.24H219.663C219.077 236.347 217.903 238.067 216.143 239.4C214.383 240.707 212.197 241.36 209.583 241.36C207.503 241.36 205.637 240.893 203.983 239.96C202.357 239.027 201.077 237.707 200.143 236C199.21 234.267 198.743 232.267 198.743 230C198.743 227.733 199.197 225.747 200.103 224.04C201.01 222.333 202.277 221.027 203.903 220.12C205.557 219.187 207.45 218.72 209.583 218.72C211.663 218.72 213.503 219.173 215.103 220.08C216.703 220.987 217.93 222.24 218.783 223.84C219.663 225.413 220.103 227.2 220.103 229.2ZM216.343 228.44C216.343 227.053 216.037 225.867 215.423 224.88C214.81 223.867 213.97 223.107 212.903 222.6C211.863 222.067 210.703 221.8 209.423 221.8C207.583 221.8 206.01 222.387 204.703 223.56C203.423 224.733 202.69 226.36 202.503 228.44H216.343ZM225.468 213.12H229.508L225.668 222.2H223.108L225.468 213.12ZM237.298 222.64C237.938 221.387 238.845 220.413 240.018 219.72C241.218 219.027 242.671 218.68 244.378 218.68V222.44H243.418C239.338 222.44 237.298 224.653 237.298 229.08V241H233.658V219.08H237.298V222.64ZM268.58 229.2C268.58 229.893 268.54 230.627 268.46 231.4H250.94C251.073 233.56 251.807 235.253 253.14 236.48C254.5 237.68 256.14 238.28 258.06 238.28C259.633 238.28 260.94 237.92 261.98 237.2C263.047 236.453 263.793 235.467 264.22 234.24H268.14C267.553 236.347 266.38 238.067 264.62 239.4C262.86 240.707 260.673 241.36 258.06 241.36C255.98 241.36 254.113 240.893 252.46 239.96C250.833 239.027 249.553 237.707 248.62 236C247.687 234.267 247.22 232.267 247.22 230C247.22 227.733 247.673 225.747 248.58 224.04C249.487 222.333 250.753 221.027 252.38 220.12C254.033 219.187 255.927 218.72 258.06 218.72C260.14 218.72 261.98 219.173 263.58 220.08C265.18 220.987 266.407 222.24 267.26 223.84C268.14 225.413 268.58 227.2 268.58 229.2ZM264.82 228.44C264.82 227.053 264.513 225.867 263.9 224.88C263.287 223.867 262.447 223.107 261.38 222.6C260.34 222.067 259.18 221.8 257.9 221.8C256.06 221.8 254.487 222.387 253.18 223.56C251.9 224.733 251.167 226.36 250.98 228.44H264.82ZM286.009 215.52C285.315 215.52 284.729 215.28 284.249 214.8C283.795 214.32 283.569 213.733 283.569 213.04C283.569 212.347 283.795 211.76 284.249 211.28C284.729 210.8 285.315 210.56 286.009 210.56C286.702 210.56 287.275 210.8 287.729 211.28C288.209 211.76 288.449 212.347 288.449 213.04C288.449 213.733 288.209 214.32 287.729 214.8C287.275 215.28 286.702 215.52 286.009 215.52ZM287.809 245.76C287.809 247.707 287.315 249.133 286.329 250.04C285.342 250.947 283.902 251.4 282.009 251.4H279.889V248.32H281.409C282.422 248.32 283.129 248.12 283.529 247.72C283.955 247.32 284.169 246.64 284.169 245.68V219.08H287.809V245.76ZM313.411 219.08V241H309.771V237.76C309.077 238.88 308.104 239.76 306.851 240.4C305.624 241.013 304.264 241.32 302.771 241.32C301.064 241.32 299.531 240.973 298.171 240.28C296.811 239.56 295.731 238.493 294.931 237.08C294.157 235.667 293.771 233.947 293.771 231.92V219.08H297.371V231.44C297.371 233.6 297.917 235.267 299.011 236.44C300.104 237.587 301.597 238.16 303.491 238.16C305.437 238.16 306.971 237.56 308.091 236.36C309.211 235.16 309.771 233.413 309.771 231.12V219.08H313.411ZM327.317 241.36C325.637 241.36 324.13 241.08 322.797 240.52C321.463 239.933 320.41 239.133 319.637 238.12C318.863 237.08 318.437 235.893 318.357 234.56H322.117C322.223 235.653 322.73 236.547 323.637 237.24C324.57 237.933 325.783 238.28 327.277 238.28C328.663 238.28 329.757 237.973 330.557 237.36C331.357 236.747 331.757 235.973 331.757 235.04C331.757 234.08 331.33 233.373 330.477 232.92C329.623 232.44 328.303 231.973 326.517 231.52C324.89 231.093 323.557 230.667 322.517 230.24C321.503 229.787 320.623 229.133 319.877 228.28C319.157 227.4 318.797 226.253 318.797 224.84C318.797 223.72 319.13 222.693 319.797 221.76C320.463 220.827 321.41 220.093 322.637 219.56C323.863 219 325.263 218.72 326.837 218.72C329.263 218.72 331.223 219.333 332.717 220.56C334.21 221.787 335.01 223.467 335.117 225.6H331.477C331.397 224.453 330.93 223.533 330.077 222.84C329.25 222.147 328.13 221.8 326.717 221.8C325.41 221.8 324.37 222.08 323.597 222.64C322.823 223.2 322.437 223.933 322.437 224.84C322.437 225.56 322.663 226.16 323.117 226.64C323.597 227.093 324.183 227.467 324.877 227.76C325.597 228.027 326.583 228.333 327.837 228.68C329.41 229.107 330.69 229.533 331.677 229.96C332.663 230.36 333.503 230.973 334.197 231.8C334.917 232.627 335.29 233.707 335.317 235.04C335.317 236.24 334.983 237.32 334.317 238.28C333.65 239.24 332.703 240 331.477 240.56C330.277 241.093 328.89 241.36 327.317 241.36ZM344.895 222.08V235C344.895 236.067 345.122 236.827 345.575 237.28C346.028 237.707 346.815 237.92 347.935 237.92H350.615V241H347.335C345.308 241 343.788 240.533 342.775 239.6C341.762 238.667 341.255 237.133 341.255 235V222.08H338.415V219.08H341.255V213.56H344.895V219.08H350.615V222.08H344.895ZM364.329 229.96C364.329 227.72 364.783 225.76 365.689 224.08C366.596 222.373 367.836 221.053 369.409 220.12C371.009 219.187 372.783 218.72 374.729 218.72C376.649 218.72 378.316 219.133 379.729 219.96C381.143 220.787 382.196 221.827 382.889 223.08V219.08H386.569V241H382.889V236.92C382.169 238.2 381.089 239.267 379.649 240.12C378.236 240.947 376.583 241.36 374.689 241.36C372.743 241.36 370.983 240.88 369.409 239.92C367.836 238.96 366.596 237.613 365.689 235.88C364.783 234.147 364.329 232.173 364.329 229.96ZM382.889 230C382.889 228.347 382.556 226.907 381.889 225.68C381.223 224.453 380.316 223.52 379.169 222.88C378.049 222.213 376.809 221.88 375.449 221.88C374.089 221.88 372.849 222.2 371.729 222.84C370.609 223.48 369.716 224.413 369.049 225.64C368.383 226.867 368.049 228.307 368.049 229.96C368.049 231.64 368.383 233.107 369.049 234.36C369.716 235.587 370.609 236.533 371.729 237.2C372.849 237.84 374.089 238.16 375.449 238.16C376.809 238.16 378.049 237.84 379.169 237.2C380.316 236.533 381.223 235.587 381.889 234.36C382.556 233.107 382.889 231.653 382.889 230ZM429.745 218.68C431.451 218.68 432.971 219.04 434.305 219.76C435.638 220.453 436.691 221.507 437.465 222.92C438.238 224.333 438.625 226.053 438.625 228.08V241H435.025V228.6C435.025 226.413 434.478 224.747 433.385 223.6C432.318 222.427 430.865 221.84 429.025 221.84C427.131 221.84 425.625 222.453 424.505 223.68C423.385 224.88 422.825 226.627 422.825 228.92V241H419.225V228.6C419.225 226.413 418.678 224.747 417.585 223.6C416.518 222.427 415.065 221.84 413.225 221.84C411.331 221.84 409.825 222.453 408.705 223.68C407.585 224.88 407.025 226.627 407.025 228.92V241H403.385V219.08H407.025V222.24C407.745 221.093 408.705 220.213 409.905 219.6C411.131 218.987 412.478 218.68 413.945 218.68C415.785 218.68 417.411 219.093 418.825 219.92C420.238 220.747 421.291 221.96 421.985 223.56C422.598 222.013 423.611 220.813 425.025 219.96C426.438 219.107 428.011 218.68 429.745 218.68ZM464.596 229.2C464.596 229.893 464.556 230.627 464.476 231.4H446.956C447.089 233.56 447.822 235.253 449.156 236.48C450.516 237.68 452.156 238.28 454.076 238.28C455.649 238.28 456.956 237.92 457.996 237.2C459.062 236.453 459.809 235.467 460.236 234.24H464.156C463.569 236.347 462.396 238.067 460.636 239.4C458.876 240.707 456.689 241.36 454.076 241.36C451.996 241.36 450.129 240.893 448.476 239.96C446.849 239.027 445.569 237.707 444.636 236C443.702 234.267 443.236 232.267 443.236 230C443.236 227.733 443.689 225.747 444.596 224.04C445.502 222.333 446.769 221.027 448.396 220.12C450.049 219.187 451.942 218.72 454.076 218.72C456.156 218.72 457.996 219.173 459.596 220.08C461.196 220.987 462.422 222.24 463.276 223.84C464.156 225.413 464.596 227.2 464.596 229.2ZM460.836 228.44C460.836 227.053 460.529 225.867 459.916 224.88C459.302 223.867 458.462 223.107 457.396 222.6C456.356 222.067 455.196 221.8 453.916 221.8C452.076 221.8 450.502 222.387 449.196 223.56C447.916 224.733 447.182 226.36 446.996 228.44H460.836ZM477.16 241.36C475.48 241.36 473.974 241.08 472.64 240.52C471.307 239.933 470.254 239.133 469.48 238.12C468.707 237.08 468.28 235.893 468.2 234.56H471.96C472.067 235.653 472.574 236.547 473.48 237.24C474.414 237.933 475.627 238.28 477.12 238.28C478.507 238.28 479.6 237.973 480.4 237.36C481.2 236.747 481.6 235.973 481.6 235.04C481.6 234.08 481.174 233.373 480.32 232.92C479.467 232.44 478.147 231.973 476.36 231.52C474.734 231.093 473.4 230.667 472.36 230.24C471.347 229.787 470.467 229.133 469.72 228.28C469 227.4 468.64 226.253 468.64 224.84C468.64 223.72 468.974 222.693 469.64 221.76C470.307 220.827 471.254 220.093 472.48 219.56C473.707 219 475.107 218.72 476.68 218.72C479.107 218.72 481.067 219.333 482.56 220.56C484.054 221.787 484.854 223.467 484.96 225.6H481.32C481.24 224.453 480.774 223.533 479.92 222.84C479.094 222.147 477.974 221.8 476.56 221.8C475.254 221.8 474.214 222.08 473.44 222.64C472.667 223.2 472.28 223.933 472.28 224.84C472.28 225.56 472.507 226.16 472.96 226.64C473.44 227.093 474.027 227.467 474.72 227.76C475.44 228.027 476.427 228.333 477.68 228.68C479.254 229.107 480.534 229.533 481.52 229.96C482.507 230.36 483.347 230.973 484.04 231.8C484.76 232.627 485.134 233.707 485.16 235.04C485.16 236.24 484.827 237.32 484.16 238.28C483.494 239.24 482.547 240 481.32 240.56C480.12 241.093 478.734 241.36 477.16 241.36ZM498.059 241.36C496.379 241.36 494.872 241.08 493.539 240.52C492.205 239.933 491.152 239.133 490.379 238.12C489.605 237.08 489.179 235.893 489.099 234.56H492.859C492.965 235.653 493.472 236.547 494.379 237.24C495.312 237.933 496.525 238.28 498.019 238.28C499.405 238.28 500.499 237.973 501.299 237.36C502.099 236.747 502.499 235.973 502.499 235.04C502.499 234.08 502.072 233.373 501.219 232.92C500.365 232.44 499.045 231.973 497.259 231.52C495.632 231.093 494.299 230.667 493.259 230.24C492.245 229.787 491.365 229.133 490.619 228.28C489.899 227.4 489.539 226.253 489.539 224.84C489.539 223.72 489.872 222.693 490.539 221.76C491.205 220.827 492.152 220.093 493.379 219.56C494.605 219 496.005 218.72 497.579 218.72C500.005 218.72 501.965 219.333 503.459 220.56C504.952 221.787 505.752 223.467 505.859 225.6H502.219C502.139 224.453 501.672 223.533 500.819 222.84C499.992 222.147 498.872 221.8 497.459 221.8C496.152 221.8 495.112 222.08 494.339 222.64C493.565 223.2 493.179 223.933 493.179 224.84C493.179 225.56 493.405 226.16 493.859 226.64C494.339 227.093 494.925 227.467 495.619 227.76C496.339 228.027 497.325 228.333 498.579 228.68C500.152 229.107 501.432 229.533 502.419 229.96C503.405 230.36 504.245 230.973 504.939 231.8C505.659 232.627 506.032 233.707 506.059 235.04C506.059 236.24 505.725 237.32 505.059 238.28C504.392 239.24 503.445 240 502.219 240.56C501.019 241.093 499.632 241.36 498.059 241.36ZM509.837 229.96C509.837 227.72 510.291 225.76 511.197 224.08C512.104 222.373 513.344 221.053 514.917 220.12C516.517 219.187 518.291 218.72 520.237 218.72C522.157 218.72 523.824 219.133 525.237 219.96C526.651 220.787 527.704 221.827 528.397 223.08V219.08H532.077V241H528.397V236.92C527.677 238.2 526.597 239.267 525.157 240.12C523.744 240.947 522.091 241.36 520.197 241.36C518.251 241.36 516.491 240.88 514.917 239.92C513.344 238.96 512.104 237.613 511.197 235.88C510.291 234.147 509.837 232.173 509.837 229.96ZM528.397 230C528.397 228.347 528.064 226.907 527.397 225.68C526.731 224.453 525.824 223.52 524.677 222.88C523.557 222.213 522.317 221.88 520.957 221.88C519.597 221.88 518.357 222.2 517.237 222.84C516.117 223.48 515.224 224.413 514.557 225.64C513.891 226.867 513.557 228.307 513.557 229.96C513.557 231.64 513.891 233.107 514.557 234.36C515.224 235.587 516.117 236.533 517.237 237.2C518.357 237.84 519.597 238.16 520.957 238.16C522.317 238.16 523.557 237.84 524.677 237.2C525.824 236.533 526.731 235.587 527.397 234.36C528.064 233.107 528.397 231.653 528.397 230ZM547.268 218.72C549.162 218.72 550.815 219.133 552.228 219.96C553.668 220.787 554.735 221.827 555.428 223.08V219.08H559.108V241.48C559.108 243.48 558.682 245.253 557.828 246.8C556.975 248.373 555.748 249.6 554.148 250.48C552.575 251.36 550.735 251.8 548.628 251.8C545.748 251.8 543.348 251.12 541.428 249.76C539.508 248.4 538.375 246.547 538.028 244.2H541.628C542.028 245.533 542.855 246.6 544.108 247.4C545.362 248.227 546.868 248.64 548.628 248.64C550.628 248.64 552.255 248.013 553.508 246.76C554.788 245.507 555.428 243.747 555.428 241.48V236.88C554.708 238.16 553.642 239.227 552.228 240.08C550.815 240.933 549.162 241.36 547.268 241.36C545.322 241.36 543.548 240.88 541.948 239.92C540.375 238.96 539.135 237.613 538.228 235.88C537.322 234.147 536.868 232.173 536.868 229.96C536.868 227.72 537.322 225.76 538.228 224.08C539.135 222.373 540.375 221.053 541.948 220.12C543.548 219.187 545.322 218.72 547.268 218.72ZM555.428 230C555.428 228.347 555.095 226.907 554.428 225.68C553.762 224.453 552.855 223.52 551.708 222.88C550.588 222.213 549.348 221.88 547.988 221.88C546.628 221.88 545.388 222.2 544.268 222.84C543.148 223.48 542.255 224.413 541.588 225.64C540.922 226.867 540.588 228.307 540.588 229.96C540.588 231.64 540.922 233.107 541.588 234.36C542.255 235.587 543.148 236.533 544.268 237.2C545.388 237.84 546.628 238.16 547.988 238.16C549.348 238.16 550.588 237.84 551.708 237.2C552.855 236.533 553.762 235.587 554.428 234.36C555.095 233.107 555.428 231.653 555.428 230ZM585.26 229.2C585.26 229.893 585.22 230.627 585.14 231.4H567.62C567.753 233.56 568.486 235.253 569.82 236.48C571.18 237.68 572.82 238.28 574.74 238.28C576.313 238.28 577.62 237.92 578.66 237.2C579.726 236.453 580.473 235.467 580.9 234.24H584.82C584.233 236.347 583.06 238.067 581.3 239.4C579.54 240.707 577.353 241.36 574.74 241.36C572.66 241.36 570.793 240.893 569.14 239.96C567.513 239.027 566.233 237.707 565.3 236C564.366 234.267 563.9 232.267 563.9 230C563.9 227.733 564.353 225.747 565.26 224.04C566.166 222.333 567.433 221.027 569.06 220.12C570.713 219.187 572.606 218.72 574.74 218.72C576.82 218.72 578.66 219.173 580.26 220.08C581.86 220.987 583.086 222.24 583.94 223.84C584.82 225.413 585.26 227.2 585.26 229.2ZM581.5 228.44C581.5 227.053 581.193 225.867 580.58 224.88C579.966 223.867 579.126 223.107 578.06 222.6C577.02 222.067 575.86 221.8 574.58 221.8C572.74 221.8 571.166 222.387 569.86 223.56C568.58 224.733 567.846 226.36 567.66 228.44H581.5ZM599.368 229.96C599.368 227.72 599.822 225.76 600.728 224.08C601.635 222.373 602.875 221.053 604.448 220.12C606.048 219.187 607.822 218.72 609.768 218.72C611.688 218.72 613.355 219.133 614.768 219.96C616.182 220.787 617.235 221.827 617.928 223.08V219.08H621.608V241H617.928V236.92C617.208 238.2 616.128 239.267 614.688 240.12C613.275 240.947 611.622 241.36 609.728 241.36C607.782 241.36 606.022 240.88 604.448 239.92C602.875 238.96 601.635 237.613 600.728 235.88C599.822 234.147 599.368 232.173 599.368 229.96ZM617.928 230C617.928 228.347 617.595 226.907 616.928 225.68C616.262 224.453 615.355 223.52 614.208 222.88C613.088 222.213 611.848 221.88 610.488 221.88C609.128 221.88 607.888 222.2 606.768 222.84C605.648 223.48 604.755 224.413 604.088 225.64C603.422 226.867 603.088 228.307 603.088 229.96C603.088 231.64 603.422 233.107 604.088 234.36C604.755 235.587 605.648 236.533 606.768 237.2C607.888 237.84 609.128 238.16 610.488 238.16C611.848 238.16 613.088 237.84 614.208 237.2C615.355 236.533 616.262 235.587 616.928 234.36C617.595 233.107 617.928 231.653 617.928 230ZM656.96 219.08L650.12 241H646.36L641.08 223.6L635.8 241H632.04L625.16 219.08H628.88L633.92 237.48L639.36 219.08H643.08L648.4 237.52L653.36 219.08H656.96ZM659.212 229.96C659.212 227.72 659.666 225.76 660.572 224.08C661.479 222.373 662.719 221.053 664.292 220.12C665.892 219.187 667.666 218.72 669.612 218.72C671.532 218.72 673.199 219.133 674.612 219.96C676.026 220.787 677.079 221.827 677.772 223.08V219.08H681.452V241H677.772V236.92C677.052 238.2 675.972 239.267 674.532 240.12C673.119 240.947 671.466 241.36 669.572 241.36C667.626 241.36 665.866 240.88 664.292 239.92C662.719 238.96 661.479 237.613 660.572 235.88C659.666 234.147 659.212 232.173 659.212 229.96ZM677.772 230C677.772 228.347 677.439 226.907 676.772 225.68C676.106 224.453 675.199 223.52 674.052 222.88C672.932 222.213 671.692 221.88 670.332 221.88C668.972 221.88 667.732 222.2 666.612 222.84C665.492 223.48 664.599 224.413 663.932 225.64C663.266 226.867 662.932 228.307 662.932 229.96C662.932 231.64 663.266 233.107 663.932 234.36C664.599 235.587 665.492 236.533 666.612 237.2C667.732 237.84 668.972 238.16 670.332 238.16C671.692 238.16 672.932 237.84 674.052 237.2C675.199 236.533 676.106 235.587 676.772 234.36C677.439 233.107 677.772 231.653 677.772 230ZM706.483 219.08L693.283 251.32H689.523L693.843 240.76L685.003 219.08H689.043L695.923 236.84L702.723 219.08H706.483ZM714.863 213.12L714.423 233.12H711.383L710.943 213.12H714.863ZM713.063 241.24C712.369 241.24 711.783 241 711.303 240.52C710.823 240.04 710.583 239.453 710.583 238.76C710.583 238.067 710.823 237.48 711.303 237C711.783 236.52 712.369 236.28 713.063 236.28C713.729 236.28 714.289 236.52 714.743 237C715.223 237.48 715.463 238.067 715.463 238.76C715.463 239.453 715.223 240.04 714.743 240.52C714.289 241 713.729 241.24 713.063 241.24Z" fill="white"/>
<rect y="308" width="907" height="458" fill="white"/>
<rect x="2" y="279" width="28" height="29" fill="#2882C0"/>
</svg>
