<svg width="1010" height="723" viewBox="0 0 1010 723" fill="none" xmlns="http://www.w3.org/2000/svg">
<rect x="43.6377" y="194.395" width="944.034" height="548.605" fill="#010101"/>
<path d="M21.2744 100.705L946.615 -21.9997L966.09 99.6242L46.9437 200.314L21.2744 100.705Z" fill="#010101"/>
<rect width="94.5276" height="152.508" transform="matrix(0.995314 -0.0966976 0.849417 0.527722 12.0127 97.5171)" fill="#D9D9D9"/>
<rect width="94.5276" height="164.36" transform="matrix(0.995314 -0.0966976 0.849417 0.527722 12.0127 97.5171)" fill="#D9D9D9"/>
<rect width="94.5276" height="164.378" transform="matrix(0.995314 -0.0966976 0.849417 0.527722 196.729 74.1162)" fill="#D9D9D9"/>
<rect width="94.5276" height="176.324" transform="matrix(0.995314 -0.0966976 0.849417 0.527722 383.917 52.4614)" fill="#D9D9D9"/>
<rect width="94.5276" height="164.378" transform="matrix(0.995314 -0.0966976 0.849417 0.527722 571.145 30.8071)" fill="#D9D9D9"/>
<rect width="94.5276" height="164.378" transform="matrix(0.995314 -0.0966976 0.849417 0.527722 733.41 9.15186)" fill="#D9D9D9"/>
<path d="M982.829 198.732L46.989 179.529L45.6759 302.315L972.115 300.369L982.829 198.732Z" fill="#010101"/>
<rect width="94.3323" height="152.395" transform="matrix(-1.00346 0.0143723 -0.764848 0.61795 991.563 194.544)" fill="#D9D9D9"/>
<rect width="94.3323" height="164.238" transform="matrix(-1.00346 0.0143723 -0.764848 0.61795 991.563 194.544)" fill="#D9D9D9"/>
<rect width="94.3323" height="164.256" transform="matrix(-1.00346 0.0143723 -0.764848 0.61795 804.933 191.794)" fill="#D9D9D9"/>
<rect width="86.6128" height="177.092" transform="matrix(-1.00346 0.0143723 -0.764848 0.61795 616.709 190.498)" fill="#D9D9D9"/>
<rect width="94.3323" height="170.584" transform="matrix(-1.00346 0.0143723 -0.764848 0.61795 432.002 186.405)" fill="#D9D9D9"/>
<rect width="94.3323" height="164.256" transform="matrix(-1.00346 0.0143723 -0.764848 0.61795 235.621 180.598)" fill="#D9D9D9"/>
</svg>
