<svg width="988" height="765" viewBox="0 0 988 765" fill="none" xmlns="http://www.w3.org/2000/svg">
<rect x="24.625" y="216.395" width="944.034" height="548.605" fill="#010101"/>
<path d="M0.261719 122.705L925.602 -0.0002282L945.077 121.624L25.9311 222.314L0.261719 122.705Z" fill="#010101"/>
<rect width="94.5276" height="164.182" transform="matrix(0.995314 -0.0966976 0.849417 0.527722 0 122.517)" fill="#D9D9D9"/>
<rect width="94.5276" height="164.378" transform="matrix(0.995314 -0.0966976 0.849417 0.527722 175.717 96.1157)" fill="#D9D9D9"/>
<rect width="94.5276" height="176.324" transform="matrix(0.995314 -0.0966976 0.849417 0.527722 362.904 74.4614)" fill="#D9D9D9"/>
<rect width="94.5276" height="177.124" transform="matrix(0.995314 -0.0966976 0.849417 0.527722 550.132 52.8071)" fill="#D9D9D9"/>
<rect width="71.9606" height="173.518" transform="matrix(0.995314 -0.0966976 0.849417 0.527722 727.859 33.9697)" fill="#D9D9D9"/>
<path d="M963.816 220.731L27.9763 201.529L26.6632 324.315L953.102 322.369L963.816 220.731Z" fill="#010101"/>
<rect width="85.0978" height="152.395" transform="matrix(-1.00346 0.0143723 -0.764848 0.61795 969.207 215)" fill="#D9D9D9"/>
<rect width="94.3323" height="164.256" transform="matrix(-1.00346 0.0143723 -0.764848 0.61795 788.92 213.793)" fill="#D9D9D9"/>
<rect width="86.6128" height="177.092" transform="matrix(-1.00346 0.0143723 -0.764848 0.61795 604.696 212.498)" fill="#D9D9D9"/>
<rect width="94.3323" height="170.584" transform="matrix(-1.00346 0.0143723 -0.764848 0.61795 415.99 208.405)" fill="#D9D9D9"/>
<path fill-rule="evenodd" clip-rule="evenodd" d="M131.001 203.487L226.001 203.487L94.15 306.512L22 306.512L22.0003 288.239L131.001 203.487Z" fill="#D9D9D9"/>
</svg>
