<svg width="492" height="97" viewBox="0 0 492 97" fill="none" xmlns="http://www.w3.org/2000/svg">
<g filter="url(#filter0_d_426_302)">
<rect x="9" y="5" width="474" height="79" rx="39.5" fill="white"/>
<rect x="11.5" y="7.5" width="469" height="74" rx="37" stroke="url(#paint0_linear_426_302)" stroke-width="5"/>
</g>
<g filter="url(#filter1_d_426_302)">
<path d="M9 44.5C9 22.6848 26.6848 5 48.5 5H99.3735V84H48.5C26.6848 84 9 66.3152 9 44.5Z" fill="#00416E"/>
<path d="M11.5 44.5C11.5 24.0655 28.0655 7.5 48.5 7.5H96.8735V81.5H48.5C28.0655 81.5 11.5 64.9345 11.5 44.5Z" stroke="url(#paint1_linear_426_302)" stroke-width="5"/>
</g>
<path d="M85.6265 21.7537C85.3517 21.3938 84.9803 21.1193 84.5555 20.9624C84.1308 20.8054 83.6701 20.7724 83.2273 20.8672L30.0622 32.3659L29.0607 36.7245L47.3648 49.4185L55.7234 72.2805L60.083 73.2821L85.8388 24.303C86.0486 23.9016 86.14 23.4489 86.1024 22.9975C86.0648 22.5462 85.8998 22.1148 85.6265 21.7537ZM58.3466 68.5065L51.162 48.8552L72.5669 34.0541L70.4287 30.9619L48.8564 45.8782L33.7647 35.412L81.1364 25.1657L58.3466 68.5065Z" fill="white"/>
<path d="M124.779 56.5883C123.285 56.5883 121.941 56.3323 120.747 55.8203C119.552 55.2869 118.613 54.5403 117.931 53.5803C117.248 52.6203 116.907 51.5003 116.907 50.2203H120.811C120.896 51.1803 121.269 51.9696 121.931 52.5883C122.613 53.2069 123.563 53.5163 124.779 53.5163C126.037 53.5163 127.019 53.2176 127.723 52.6203C128.427 52.0016 128.779 51.2123 128.779 50.2523C128.779 49.5056 128.555 48.8976 128.107 48.4283C127.68 47.9589 127.136 47.5963 126.475 47.3403C125.835 47.0843 124.939 46.8069 123.787 46.5083C122.336 46.1243 121.152 45.7403 120.235 45.3563C119.339 44.9509 118.571 44.3323 117.931 43.5003C117.291 42.6683 116.971 41.5589 116.971 40.1723C116.971 38.8923 117.291 37.7723 117.931 36.8123C118.571 35.8523 119.467 35.1163 120.619 34.6043C121.771 34.0923 123.104 33.8363 124.619 33.8363C126.773 33.8363 128.533 34.3803 129.899 35.4683C131.285 36.5349 132.053 38.0069 132.203 39.8843H128.171C128.107 39.0736 127.723 38.3803 127.019 37.8043C126.315 37.2283 125.387 36.9403 124.235 36.9403C123.189 36.9403 122.336 37.2069 121.675 37.7403C121.013 38.2736 120.683 39.0416 120.683 40.0443C120.683 40.7269 120.885 41.2923 121.291 41.7403C121.717 42.1669 122.251 42.5083 122.891 42.7643C123.531 43.0203 124.405 43.2976 125.515 43.5963C126.987 44.0016 128.181 44.4069 129.099 44.8123C130.037 45.2176 130.827 45.8469 131.467 46.7003C132.128 47.5323 132.459 48.6523 132.459 50.0603C132.459 51.1909 132.149 52.2576 131.531 53.2603C130.933 54.2629 130.048 55.0736 128.875 55.6923C127.723 56.2896 126.357 56.5883 124.779 56.5883ZM141.691 37.0683V43.5963H149.371V46.5723H141.691V53.3883H150.331V56.3643H138.043V34.0923H150.331V37.0683H141.691ZM174.377 56.3643H170.729L159.753 39.7563V56.3643H156.105V34.0923H159.753L170.729 50.6683V34.0923H174.377V56.3643ZM187.711 34.1243C190.079 34.1243 192.148 34.5829 193.919 35.5003C195.711 36.3963 197.087 37.6976 198.047 39.4043C199.028 41.0896 199.519 43.0629 199.519 45.3243C199.519 47.5856 199.028 49.5483 198.047 51.2123C197.087 52.8763 195.711 54.1563 193.919 55.0523C192.148 55.9269 190.079 56.3643 187.711 56.3643H180.447V34.1243H187.711ZM187.711 53.3883C190.314 53.3883 192.308 52.6843 193.695 51.2763C195.082 49.8683 195.775 47.8843 195.775 45.3243C195.775 42.7429 195.082 40.7269 193.695 39.2763C192.308 37.8256 190.314 37.1003 187.711 37.1003H184.095V53.3883H187.711ZM217.623 34.1243V48.3003C217.623 49.9856 218.06 51.2549 218.935 52.1083C219.831 52.9616 221.068 53.3883 222.647 53.3883C224.247 53.3883 225.484 52.9616 226.359 52.1083C227.255 51.2549 227.703 49.9856 227.703 48.3003V34.1243H231.351V48.2363C231.351 50.0496 230.956 51.5856 230.167 52.8443C229.378 54.1029 228.322 55.0416 226.999 55.6603C225.676 56.2789 224.215 56.5883 222.615 56.5883C221.015 56.5883 219.554 56.2789 218.231 55.6603C216.93 55.0416 215.895 54.1029 215.127 52.8443C214.359 51.5856 213.975 50.0496 213.975 48.2363V34.1243H217.623ZM244.709 56.5883C243.215 56.5883 241.871 56.3323 240.677 55.8203C239.482 55.2869 238.543 54.5403 237.861 53.5803C237.178 52.6203 236.837 51.5003 236.837 50.2203H240.741C240.826 51.1803 241.199 51.9696 241.861 52.5883C242.543 53.2069 243.493 53.5163 244.709 53.5163C245.967 53.5163 246.949 53.2176 247.653 52.6203C248.357 52.0016 248.709 51.2123 248.709 50.2523C248.709 49.5056 248.485 48.8976 248.037 48.4283C247.61 47.9589 247.066 47.5963 246.405 47.3403C245.765 47.0843 244.869 46.8069 243.717 46.5083C242.266 46.1243 241.082 45.7403 240.165 45.3563C239.269 44.9509 238.501 44.3323 237.861 43.5003C237.221 42.6683 236.901 41.5589 236.901 40.1723C236.901 38.8923 237.221 37.7723 237.861 36.8123C238.501 35.8523 239.397 35.1163 240.549 34.6043C241.701 34.0923 243.034 33.8363 244.549 33.8363C246.703 33.8363 248.463 34.3803 249.829 35.4683C251.215 36.5349 251.983 38.0069 252.133 39.8843H248.101C248.037 39.0736 247.653 38.3803 246.949 37.8043C246.245 37.2283 245.317 36.9403 244.165 36.9403C243.119 36.9403 242.266 37.2069 241.605 37.7403C240.943 38.2736 240.613 39.0416 240.613 40.0443C240.613 40.7269 240.815 41.2923 241.221 41.7403C241.647 42.1669 242.181 42.5083 242.821 42.7643C243.461 43.0203 244.335 43.2976 245.445 43.5963C246.917 44.0016 248.111 44.4069 249.029 44.8123C249.967 45.2176 250.757 45.8469 251.397 46.7003C252.058 47.5323 252.389 48.6523 252.389 50.0603C252.389 51.1909 252.079 52.2576 251.461 53.2603C250.863 54.2629 249.978 55.0736 248.805 55.6923C247.653 56.2896 246.287 56.5883 244.709 56.5883ZM280.974 51.8203H271.662L270.062 56.3643H266.254L274.222 34.0923H278.446L286.414 56.3643H282.574L280.974 51.8203ZM279.95 48.8443L276.334 38.5083L272.686 48.8443H279.95ZM324.175 34.1243V56.3643H320.527V41.1323L313.743 56.3643H311.215L304.399 41.1323V56.3643H300.751V34.1243H304.687L312.495 51.5643L320.271 34.1243H324.175ZM333.898 37.0683V43.5963H341.578V46.5723H333.898V53.3883H342.538V56.3643H330.25V34.0923H342.538V37.0683H333.898ZM355.639 56.5883C354.145 56.5883 352.801 56.3323 351.607 55.8203C350.412 55.2869 349.473 54.5403 348.791 53.5803C348.108 52.6203 347.767 51.5003 347.767 50.2203H351.671C351.756 51.1803 352.129 51.9696 352.791 52.5883C353.473 53.2069 354.423 53.5163 355.639 53.5163C356.897 53.5163 357.879 53.2176 358.583 52.6203C359.287 52.0016 359.639 51.2123 359.639 50.2523C359.639 49.5056 359.415 48.8976 358.967 48.4283C358.54 47.9589 357.996 47.5963 357.335 47.3403C356.695 47.0843 355.799 46.8069 354.647 46.5083C353.196 46.1243 352.012 45.7403 351.095 45.3563C350.199 44.9509 349.431 44.3323 348.791 43.5003C348.151 42.6683 347.831 41.5589 347.831 40.1723C347.831 38.8923 348.151 37.7723 348.791 36.8123C349.431 35.8523 350.327 35.1163 351.479 34.6043C352.631 34.0923 353.964 33.8363 355.479 33.8363C357.633 33.8363 359.393 34.3803 360.759 35.4683C362.145 36.5349 362.913 38.0069 363.063 39.8843H359.031C358.967 39.0736 358.583 38.3803 357.879 37.8043C357.175 37.2283 356.247 36.9403 355.095 36.9403C354.049 36.9403 353.196 37.2069 352.535 37.7403C351.873 38.2736 351.543 39.0416 351.543 40.0443C351.543 40.7269 351.745 41.2923 352.151 41.7403C352.577 42.1669 353.111 42.5083 353.751 42.7643C354.391 43.0203 355.265 43.2976 356.375 43.5963C357.847 44.0016 359.041 44.4069 359.959 44.8123C360.897 45.2176 361.687 45.8469 362.327 46.7003C362.988 47.5323 363.319 48.6523 363.319 50.0603C363.319 51.1909 363.009 52.2576 362.391 53.2603C361.793 54.2629 360.908 55.0736 359.735 55.6923C358.583 56.2896 357.217 56.5883 355.639 56.5883ZM376.231 56.5883C374.738 56.5883 373.394 56.3323 372.199 55.8203C371.005 55.2869 370.066 54.5403 369.383 53.5803C368.701 52.6203 368.359 51.5003 368.359 50.2203H372.263C372.349 51.1803 372.722 51.9696 373.383 52.5883C374.066 53.2069 375.015 53.5163 376.231 53.5163C377.49 53.5163 378.471 53.2176 379.175 52.6203C379.879 52.0016 380.231 51.2123 380.231 50.2523C380.231 49.5056 380.007 48.8976 379.559 48.4283C379.133 47.9589 378.589 47.5963 377.927 47.3403C377.287 47.0843 376.391 46.8069 375.239 46.5083C373.789 46.1243 372.605 45.7403 371.687 45.3563C370.791 44.9509 370.023 44.3323 369.383 43.5003C368.743 42.6683 368.423 41.5589 368.423 40.1723C368.423 38.8923 368.743 37.7723 369.383 36.8123C370.023 35.8523 370.919 35.1163 372.071 34.6043C373.223 34.0923 374.557 33.8363 376.071 33.8363C378.226 33.8363 379.986 34.3803 381.351 35.4683C382.738 36.5349 383.506 38.0069 383.655 39.8843H379.623C379.559 39.0736 379.175 38.3803 378.471 37.8043C377.767 37.2283 376.839 36.9403 375.687 36.9403C374.642 36.9403 373.789 37.2069 373.127 37.7403C372.466 38.2736 372.135 39.0416 372.135 40.0443C372.135 40.7269 372.338 41.2923 372.743 41.7403C373.17 42.1669 373.703 42.5083 374.343 42.7643C374.983 43.0203 375.858 43.2976 376.967 43.5963C378.439 44.0016 379.634 44.4069 380.551 44.8123C381.49 45.2176 382.279 45.8469 382.919 46.7003C383.581 47.5323 383.911 48.6523 383.911 50.0603C383.911 51.1909 383.602 52.2576 382.983 53.2603C382.386 54.2629 381.501 55.0736 380.327 55.6923C379.175 56.2896 377.81 56.5883 376.231 56.5883ZM402.904 51.8203H393.592L391.992 56.3643H388.184L396.152 34.0923H400.376L408.344 56.3643H404.504L402.904 51.8203ZM401.88 48.8443L398.264 38.5083L394.616 48.8443H401.88ZM429.184 40.5243C428.608 39.4149 427.808 38.5829 426.784 38.0283C425.76 37.4523 424.576 37.1643 423.232 37.1643C421.76 37.1643 420.448 37.4949 419.296 38.1563C418.144 38.8176 417.238 39.7563 416.576 40.9723C415.936 42.1883 415.616 43.5963 415.616 45.1963C415.616 46.7963 415.936 48.2149 416.576 49.4523C417.238 50.6683 418.144 51.6069 419.296 52.2683C420.448 52.9296 421.76 53.2603 423.232 53.2603C425.216 53.2603 426.827 52.7056 428.064 51.5963C429.302 50.4869 430.059 48.9829 430.336 47.0843H421.984V44.1723H434.24V47.0203C434.006 48.7483 433.387 50.3376 432.384 51.7883C431.403 53.2389 430.112 54.4016 428.512 55.2763C426.934 56.1296 425.174 56.5563 423.232 56.5563C421.142 56.5563 419.232 56.0763 417.504 55.1163C415.776 54.1349 414.4 52.7803 413.376 51.0523C412.374 49.3243 411.872 47.3723 411.872 45.1963C411.872 43.0203 412.374 41.0683 413.376 39.3403C414.4 37.6123 415.776 36.2683 417.504 35.3083C419.254 34.3269 421.163 33.8363 423.232 33.8363C425.6 33.8363 427.702 34.4229 429.536 35.5963C431.392 36.7483 432.736 38.3909 433.568 40.5243H429.184ZM442.766 37.0683V43.5963H450.446V46.5723H442.766V53.3883H451.406V56.3643H439.118V34.0923H451.406V37.0683H442.766Z" fill="#00416E"/>
<defs>
<filter id="filter0_d_426_302" x="0" y="0" width="492" height="97" filterUnits="userSpaceOnUse" color-interpolation-filters="sRGB">
<feFlood flood-opacity="0" result="BackgroundImageFix"/>
<feColorMatrix in="SourceAlpha" type="matrix" values="0 0 0 0 0 0 0 0 0 0 0 0 0 0 0 0 0 0 127 0" result="hardAlpha"/>
<feMorphology radius="5" operator="dilate" in="SourceAlpha" result="effect1_dropShadow_426_302"/>
<feOffset dy="4"/>
<feGaussianBlur stdDeviation="2"/>
<feComposite in2="hardAlpha" operator="out"/>
<feColorMatrix type="matrix" values="0 0 0 0 0 0 0 0 0 0 0 0 0 0 0 0 0 0 0.25 0"/>
<feBlend mode="normal" in2="BackgroundImageFix" result="effect1_dropShadow_426_302"/>
<feBlend mode="normal" in="SourceGraphic" in2="effect1_dropShadow_426_302" result="shape"/>
</filter>
<filter id="filter1_d_426_302" x="0" y="0" width="108.374" height="97" filterUnits="userSpaceOnUse" color-interpolation-filters="sRGB">
<feFlood flood-opacity="0" result="BackgroundImageFix"/>
<feColorMatrix in="SourceAlpha" type="matrix" values="0 0 0 0 0 0 0 0 0 0 0 0 0 0 0 0 0 0 127 0" result="hardAlpha"/>
<feMorphology radius="5" operator="dilate" in="SourceAlpha" result="effect1_dropShadow_426_302"/>
<feOffset dy="4"/>
<feGaussianBlur stdDeviation="2"/>
<feComposite in2="hardAlpha" operator="out"/>
<feColorMatrix type="matrix" values="0 0 0 0 0 0 0 0 0 0 0 0 0 0 0 0 0 0 0.25 0"/>
<feBlend mode="normal" in2="BackgroundImageFix" result="effect1_dropShadow_426_302"/>
<feBlend mode="normal" in="SourceGraphic" in2="effect1_dropShadow_426_302" result="shape"/>
</filter>
<linearGradient id="paint0_linear_426_302" x1="9" y1="44.5" x2="483" y2="44.5" gradientUnits="userSpaceOnUse">
<stop stop-color="#014F85"/>
<stop offset="1" stop-color="#00416E"/>
</linearGradient>
<linearGradient id="paint1_linear_426_302" x1="9" y1="44.5" x2="99.3735" y2="44.5" gradientUnits="userSpaceOnUse">
<stop stop-color="#014F85"/>
<stop offset="1" stop-color="#00416E"/>
</linearGradient>
</defs>
</svg>
