<svg width="1434" height="412" viewBox="0 0 1434 412" fill="none" xmlns="http://www.w3.org/2000/svg">
<path d="M0.304688 0C812.31 32.0537 1162.5 35.4215 1489 0V412C916.12 361.621 591.957 364.789 0.304688 412V0Z" fill="#3B3B3B"/>
<rect x="133.516" y="22.7734" width="25.9103" height="17.598" fill="#DADADA"/>
<rect x="186.395" y="22.7734" width="25.9103" height="17.598" fill="#DADADA"/>
<rect x="239.27" y="22.7734" width="25.9103" height="17.598" fill="#DADADA"/>
<rect x="292.148" y="22.7734" width="25.9103" height="17.598" fill="#DADADA"/>
<rect x="345.023" y="22.7734" width="25.9103" height="17.598" fill="#DADADA"/>
<rect x="397.898" y="31.0547" width="25.9103" height="17.598" fill="#DADADA"/>
<rect x="450.777" y="31.0547" width="25.9103" height="17.598" fill="#DADADA"/>
<rect x="503.656" y="32.0898" width="25.9103" height="17.598" fill="#DADADA"/>
<rect x="556.531" y="32.0898" width="25.9103" height="17.598" fill="#DADADA"/>
<rect x="609.41" y="39.3359" width="25.9103" height="17.598" fill="#DADADA"/>
<rect x="662.289" y="39.3359" width="25.9103" height="17.598" fill="#DADADA"/>
<rect x="715.164" y="41.4062" width="25.9103" height="17.598" fill="#DADADA"/>
<rect x="768.039" y="41.4062" width="25.9103" height="17.598" fill="#DADADA"/>
<rect x="820.918" y="41.4062" width="25.9103" height="17.598" fill="#DADADA"/>
<rect x="873.797" y="41.4062" width="25.9103" height="17.598" fill="#DADADA"/>
<rect x="926.672" y="41.4062" width="25.9103" height="17.598" fill="#DADADA"/>
<rect x="979.547" y="41.4062" width="25.9103" height="17.598" fill="#DADADA"/>
<rect x="1032.43" y="41.4062" width="25.9103" height="17.598" fill="#DADADA"/>
<rect x="1085.3" y="41.4062" width="25.9103" height="17.598" fill="#DADADA"/>
<rect x="1138.18" y="39.3359" width="25.9103" height="17.598" fill="#DADADA"/>
<rect x="1191.06" y="39.3359" width="25.9103" height="17.598" fill="#DADADA"/>
<rect x="1243.94" y="39.3359" width="25.9103" height="17.598" fill="#DADADA"/>
<rect x="1296.81" y="33.125" width="25.9103" height="17.598" fill="#DADADA"/>
<rect x="1349.69" y="33.125" width="25.9103" height="17.598" fill="#DADADA"/>
<rect x="1402.57" y="33.125" width="25.9103" height="17.598" fill="#DADADA"/>
<rect width="25.9103" height="17.598" transform="matrix(1 0 0 -1 122.328 385.804)" fill="#DADADA"/>
<rect width="25.9103" height="17.598" transform="matrix(1 0 0 -1 175.207 383.733)" fill="#DADADA"/>
<rect width="25.9103" height="17.598" transform="matrix(1 0 0 -1 228.082 381.663)" fill="#DADADA"/>
<rect width="25.9103" height="17.598" transform="matrix(1 0 0 -1 280.961 380.628)" fill="#DADADA"/>
<rect width="25.9103" height="17.598" transform="matrix(1 0 0 -1 333.836 375.452)" fill="#DADADA"/>
<rect width="25.9103" height="17.598" transform="matrix(1 0 0 -1 386.711 367.17)" fill="#DADADA"/>
<rect width="25.9103" height="17.598" transform="matrix(1 0 0 -1 439.594 367.17)" fill="#DADADA"/>
<rect width="25.9103" height="17.598" transform="matrix(1 0 0 -1 492.469 366.135)" fill="#DADADA"/>
<rect width="25.9103" height="17.598" transform="matrix(1 0 0 -1 545.344 366.135)" fill="#DADADA"/>
<rect width="25.9103" height="17.598" transform="matrix(1 0 0 -1 598.223 365.889)" fill="#DADADA"/>
<rect width="25.9103" height="17.598" transform="matrix(1 0 0 -1 647.031 361.889)" fill="#DADADA"/>
<rect width="25.9103" height="17.598" transform="matrix(1 0 0 -1 699.906 356.818)" fill="#DADADA"/>
<rect width="25.9103" height="17.598" transform="matrix(1 0 0 -1 752.785 356.818)" fill="#DADADA"/>
<rect width="25.9103" height="17.598" transform="matrix(1 0 0 -1 802.613 356.818)" fill="#DADADA"/>
<rect width="25.9103" height="17.598" transform="matrix(1 0 0 -1 855.492 356.818)" fill="#DADADA"/>
<rect width="25.9103" height="17.598" transform="matrix(1 0 0 -1 903.281 356.818)" fill="#DADADA"/>
<rect width="25.9103" height="17.598" transform="matrix(1 0 0 -1 960.227 359.924)" fill="#DADADA"/>
<rect width="25.9103" height="17.598" transform="matrix(1 0 0 -1 1020.22 365.1)" fill="#DADADA"/>
<rect width="25.9103" height="17.598" transform="matrix(1 0 0 -1 1074.12 369.241)" fill="#DADADA"/>
<rect width="25.9103" height="17.598" transform="matrix(1 0 0 -1 1126.99 374.417)" fill="#DADADA"/>
<rect width="25.9103" height="17.598" transform="matrix(1 0 0 -1 1179.87 376.487)" fill="#DADADA"/>
<rect width="25.9103" height="17.598" transform="matrix(1 0 0 -1 1232.75 380.628)" fill="#DADADA"/>
<rect width="25.9103" height="17.598" transform="matrix(1 0 0 -1 1285.62 384.769)" fill="#DADADA"/>
<rect width="25.9103" height="17.598" transform="matrix(1 0 0 -1 1338.5 387.874)" fill="#DADADA"/>
<rect width="25.9103" height="17.598" transform="matrix(1 0 0 -1 1391.38 392.015)" fill="#DADADA"/>
</svg>
