<svg width="47" height="47" viewBox="0 0 47 47" fill="none" xmlns="http://www.w3.org/2000/svg">
<path d="M35.325 11.675H35.3465M12.75 2H34.25C40.1871 2 45 6.81294 45 12.75V34.25C45 40.1871 40.1871 45 34.25 45H12.75C6.81294 45 2 40.1871 2 34.25V12.75C2 6.81294 6.81294 2 12.75 2ZM32.1 22.1455C32.3653 23.9348 32.0597 25.7623 31.2266 27.3679C30.3935 28.9735 29.0753 30.2755 27.4595 31.0888C25.8437 31.9021 24.0127 32.1851 22.2267 31.8978C20.4408 31.6104 18.791 30.7672 17.5119 29.4881C16.2328 28.209 15.3896 26.5592 15.1022 24.7733C14.8149 22.9873 15.0979 21.1563 15.9112 19.5405C16.7245 17.9247 18.0265 16.6065 19.6321 15.7734C21.2377 14.9403 23.0652 14.6347 24.8545 14.9C26.6797 15.1707 28.3694 16.0211 29.6741 17.3259C30.9789 18.6306 31.8293 20.3203 32.1 22.1455Z" stroke="white" stroke-width="4" stroke-linecap="round" stroke-linejoin="round"/>
</svg>
