<svg width="1489" height="412" viewBox="0 0 1489 412" fill="none" xmlns="http://www.w3.org/2000/svg">
<path d="M0 0C812.005 32.0537 1162.2 35.4215 1488.69 0V412C915.815 361.621 591.653 364.789 0 412V0Z" fill="#3B3B3B"/>
<rect x="133.211" y="22.7734" width="25.9103" height="17.598" fill="#DADADA"/>
<rect x="186.09" y="22.7734" width="25.9103" height="17.598" fill="#DADADA"/>
<rect x="238.965" y="22.7734" width="25.9103" height="17.598" fill="#DADADA"/>
<rect x="291.844" y="22.7734" width="25.9103" height="17.598" fill="#DADADA"/>
<rect x="344.719" y="22.7734" width="25.9103" height="17.598" fill="#DADADA"/>
<rect x="397.594" y="31.0547" width="25.9103" height="17.598" fill="#DADADA"/>
<rect x="450.473" y="31.0547" width="25.9103" height="17.598" fill="#DADADA"/>
<rect x="503.352" y="32.0898" width="25.9103" height="17.598" fill="#DADADA"/>
<rect x="556.227" y="32.0898" width="25.9103" height="17.598" fill="#DADADA"/>
<rect x="609.105" y="39.3359" width="25.9103" height="17.598" fill="#DADADA"/>
<rect x="661.984" y="39.3359" width="25.9103" height="17.598" fill="#DADADA"/>
<rect x="714.859" y="41.4062" width="25.9103" height="17.598" fill="#DADADA"/>
<rect x="767.734" y="41.4062" width="25.9103" height="17.598" fill="#DADADA"/>
<rect x="820.613" y="41.4062" width="25.9103" height="17.598" fill="#DADADA"/>
<rect x="873.492" y="41.4062" width="25.9103" height="17.598" fill="#DADADA"/>
<rect x="926.367" y="41.4062" width="25.9103" height="17.598" fill="#DADADA"/>
<rect x="979.242" y="41.4062" width="25.9103" height="17.598" fill="#DADADA"/>
<rect x="1032.12" y="41.4062" width="25.9103" height="17.598" fill="#DADADA"/>
<rect x="1085" y="41.4062" width="25.9103" height="17.598" fill="#DADADA"/>
<rect x="1137.88" y="39.3359" width="25.9103" height="17.598" fill="#DADADA"/>
<rect x="1190.75" y="39.3359" width="25.9103" height="17.598" fill="#DADADA"/>
<rect x="1243.63" y="39.3359" width="25.9103" height="17.598" fill="#DADADA"/>
<rect x="1296.51" y="33.125" width="25.9103" height="17.598" fill="#DADADA"/>
<rect x="1349.38" y="33.125" width="25.9103" height="17.598" fill="#DADADA"/>
<rect x="1402.26" y="33.125" width="25.9103" height="17.598" fill="#DADADA"/>
<rect width="25.9103" height="17.598" transform="matrix(1 0 0 -1 122.023 385.804)" fill="#DADADA"/>
<rect width="25.9103" height="17.598" transform="matrix(1 0 0 -1 174.902 383.733)" fill="#DADADA"/>
<rect width="25.9103" height="17.598" transform="matrix(1 0 0 -1 227.777 381.663)" fill="#DADADA"/>
<rect width="25.9103" height="17.598" transform="matrix(1 0 0 -1 280.656 380.628)" fill="#DADADA"/>
<rect width="25.9103" height="17.598" transform="matrix(1 0 0 -1 333.531 375.452)" fill="#DADADA"/>
<rect width="25.9103" height="17.598" transform="matrix(1 0 0 -1 386.406 367.17)" fill="#DADADA"/>
<rect width="25.9103" height="17.598" transform="matrix(1 0 0 -1 439.289 367.17)" fill="#DADADA"/>
<rect width="25.9103" height="17.598" transform="matrix(1 0 0 -1 492.164 366.135)" fill="#DADADA"/>
<rect width="25.9103" height="17.598" transform="matrix(1 0 0 -1 545.039 366.135)" fill="#DADADA"/>
<rect width="25.9103" height="17.598" transform="matrix(1 0 0 -1 597.918 365.889)" fill="#DADADA"/>
<rect width="25.9103" height="17.598" transform="matrix(1 0 0 -1 646.727 361.889)" fill="#DADADA"/>
<rect width="25.9103" height="17.598" transform="matrix(1 0 0 -1 699.602 356.818)" fill="#DADADA"/>
<rect width="25.9103" height="17.598" transform="matrix(1 0 0 -1 752.48 356.818)" fill="#DADADA"/>
<rect width="25.9103" height="17.598" transform="matrix(1 0 0 -1 802.309 356.818)" fill="#DADADA"/>
<rect width="25.9103" height="17.598" transform="matrix(1 0 0 -1 855.188 356.818)" fill="#DADADA"/>
<rect width="25.9103" height="17.598" transform="matrix(1 0 0 -1 902.977 356.818)" fill="#DADADA"/>
<rect width="25.9103" height="17.598" transform="matrix(1 0 0 -1 959.922 359.924)" fill="#DADADA"/>
<rect width="25.9103" height="17.598" transform="matrix(1 0 0 -1 1019.92 365.1)" fill="#DADADA"/>
<rect width="25.9103" height="17.598" transform="matrix(1 0 0 -1 1073.81 369.241)" fill="#DADADA"/>
<rect width="25.9103" height="17.598" transform="matrix(1 0 0 -1 1126.69 374.417)" fill="#DADADA"/>
<rect width="25.9103" height="17.598" transform="matrix(1 0 0 -1 1179.57 376.487)" fill="#DADADA"/>
<rect width="25.9103" height="17.598" transform="matrix(1 0 0 -1 1232.45 380.628)" fill="#DADADA"/>
<rect width="25.9103" height="17.598" transform="matrix(1 0 0 -1 1285.32 384.769)" fill="#DADADA"/>
<rect width="25.9103" height="17.598" transform="matrix(1 0 0 -1 1338.2 387.874)" fill="#DADADA"/>
<rect width="25.9103" height="17.598" transform="matrix(1 0 0 -1 1391.07 392.015)" fill="#DADADA"/>
</svg>
