<svg width="1407" height="475" viewBox="0 0 1407 475" fill="none" xmlns="http://www.w3.org/2000/svg">
<path d="M0 6.2863e-10C726 -0.000160361 450 6.28867e-10 1412 6.28867e-10V475C934 475 658 475 0 475V6.2863e-10Z" fill="#3B3B3B"/>
<rect x="113" y="28.3047" width="25.0454" height="18.8672" fill="#9C9C9C"/>
<rect x="163.682" y="28.667" width="25.0454" height="18.8672" fill="#9C9C9C"/>
<rect x="220.227" y="29.0166" width="25.0454" height="18.8672" fill="#9C9C9C"/>
<rect x="276.678" y="28.3799" width="25.0454" height="18.8672" fill="#9C9C9C"/>
<rect x="334.449" y="26" width="25.0454" height="18.8672" fill="#9C9C9C"/>
<rect x="390.559" y="26" width="25.0454" height="18.8672" fill="#9C9C9C"/>
<rect x="443.674" y="26" width="25.0454" height="18.8672" fill="#9C9C9C"/>
<rect x="494.787" y="26" width="25.0454" height="18.8672" fill="#9C9C9C"/>
<rect x="545.896" y="26" width="25.0454" height="18.8672" fill="#9C9C9C"/>
<rect x="597.01" y="26" width="25.0454" height="18.8672" fill="#9C9C9C"/>
<rect x="648.125" y="26" width="25.0454" height="18.8672" fill="#9C9C9C"/>
<rect x="699.234" y="26" width="25.0454" height="18.8672" fill="#9C9C9C"/>
<rect x="750.344" y="26" width="25.0454" height="18.8672" fill="#9C9C9C"/>
<rect x="801.459" y="26" width="25.0454" height="18.8672" fill="#9C9C9C"/>
<rect x="852.572" y="26" width="25.0454" height="18.8672" fill="#9C9C9C"/>
<rect x="903.682" y="26" width="25.0454" height="18.8672" fill="#9C9C9C"/>
<rect x="954.791" y="26" width="25.0454" height="18.8672" fill="#9C9C9C"/>
<rect x="1005.91" y="26" width="25.0454" height="18.8672" fill="#9C9C9C"/>
<rect x="1057.02" y="26" width="25.0454" height="18.8672" fill="#9C9C9C"/>
<rect x="1108.13" y="26" width="25.0454" height="18.8672" fill="#9C9C9C"/>
<rect x="1159.24" y="26" width="25.0454" height="18.8672" fill="#9C9C9C"/>
<rect x="1210.36" y="26" width="25.0454" height="18.8672" fill="#9C9C9C"/>
<rect x="1261.47" y="26" width="25.0454" height="18.8672" fill="#9C9C9C"/>
<rect x="1312.58" y="26" width="25.0454" height="18.8672" fill="#9C9C9C"/>
<rect x="1363.69" y="26" width="25.0454" height="18.8672" fill="#9C9C9C"/>
<rect x="115" y="434.305" width="25.0454" height="18.8672" fill="#9C9C9C"/>
<rect x="165.682" y="434.667" width="25.0454" height="18.8672" fill="#9C9C9C"/>
<rect x="222.227" y="435.017" width="25.0454" height="18.8672" fill="#9C9C9C"/>
<rect x="278.678" y="434.38" width="25.0454" height="18.8672" fill="#9C9C9C"/>
<rect x="336.449" y="432" width="25.0454" height="18.8672" fill="#9C9C9C"/>
<rect x="392.559" y="432" width="25.0454" height="18.8672" fill="#9C9C9C"/>
<rect x="445.674" y="432" width="25.0454" height="18.8672" fill="#9C9C9C"/>
<rect x="496.787" y="432" width="25.0454" height="18.8672" fill="#9C9C9C"/>
<rect x="547.896" y="432" width="25.0454" height="18.8672" fill="#9C9C9C"/>
<rect x="599.01" y="432" width="25.0454" height="18.8672" fill="#9C9C9C"/>
<rect x="650.125" y="432" width="25.0454" height="18.8672" fill="#9C9C9C"/>
<rect x="701.234" y="432" width="25.0454" height="18.8672" fill="#9C9C9C"/>
<rect x="752.344" y="432" width="25.0454" height="18.8672" fill="#9C9C9C"/>
<rect x="803.459" y="432" width="25.0454" height="18.8672" fill="#9C9C9C"/>
<rect x="854.572" y="432" width="25.0454" height="18.8672" fill="#9C9C9C"/>
<rect x="905.682" y="432" width="25.0454" height="18.8672" fill="#9C9C9C"/>
<rect x="956.791" y="432" width="25.0454" height="18.8672" fill="#9C9C9C"/>
<rect x="1007.91" y="432" width="25.0454" height="18.8672" fill="#9C9C9C"/>
<rect x="1059.02" y="432" width="25.0454" height="18.8672" fill="#9C9C9C"/>
<rect x="1110.13" y="432" width="25.0454" height="18.8672" fill="#9C9C9C"/>
<rect x="1161.24" y="432" width="25.0454" height="18.8672" fill="#9C9C9C"/>
<rect x="1212.36" y="432" width="25.0454" height="18.8672" fill="#9C9C9C"/>
<rect x="1263.47" y="432" width="25.0454" height="18.8672" fill="#9C9C9C"/>
<rect x="1314.58" y="432" width="25.0454" height="18.8672" fill="#9C9C9C"/>
<rect x="1365.69" y="432" width="25.0454" height="18.8672" fill="#9C9C9C"/>
</svg>
